<svg width="16" height="16" viewBox="0 0 16 16" fill="none" xmlns="http://www.w3.org/2000/svg">
<path d="M9.11429 15C8.01376 15 6.99577 14.8296 6.06032 14.4888C5.13862 14.1348 4.33386 13.6433 3.64603 13.014C2.97196 12.3848 2.44233 11.6442 2.05714 10.7921C1.68571 9.94008 1.5 9.00936 1.5 8C1.5 6.99064 1.68571 6.05992 2.05714 5.20787C2.44233 4.3558 2.97884 3.61517 3.66667 2.98596C4.3545 2.35674 5.15926 1.87172 6.08095 1.5309C7.0164 1.17697 8.03439 1 9.13492 1C10.2355 1 11.2397 1.16386 12.1476 1.49157C13.0693 1.81929 13.8534 2.31742 14.5 2.98596L13.5508 3.91011C12.9455 3.33333 12.2783 2.92041 11.5492 2.67135C10.8201 2.42228 10.036 2.29775 9.19683 2.29775C8.30265 2.29775 7.47725 2.44195 6.72063 2.73034C5.97778 3.00562 5.32434 3.40543 4.76032 3.92977C4.21005 4.44101 3.77672 5.04401 3.46032 5.73876C3.15767 6.42041 3.00635 7.17416 3.00635 8C3.00635 8.81273 3.15767 9.56648 3.46032 10.2612C3.77672 10.956 4.21005 11.5655 4.76032 12.0899C5.32434 12.6011 5.97778 13.0009 6.72063 13.2893C7.47725 13.5646 8.29577 13.7022 9.17619 13.7022C10.0016 13.7022 10.7788 13.5843 11.5079 13.3483C12.2508 13.1124 12.9317 12.7125 13.5508 12.1489L14.4175 13.25C13.7296 13.8268 12.9249 14.2659 12.0032 14.5674C11.0815 14.8558 10.1185 15 9.11429 15ZM12.9524 13.073V8H14.4175V13.25L12.9524 13.073Z" fill="white"/>
</svg>
